<svg width="24" height="24" viewBox="0 0 24 24" fill="none" xmlns="http://www.w3.org/2000/svg">
<path fill-rule="evenodd" clip-rule="evenodd" d="M22 6.32822C21.3012 6.63856 20.5497 6.84756 19.7612 6.9415C20.5655 6.45911 21.1841 5.69594 21.4754 4.785C20.7217 5.23256 19.8878 5.55661 19.0001 5.73183C18.2887 4.97394 17.2753 4.5 16.1543 4.5C14.0021 4.5 12.2562 6.24589 12.2562 8.39817C12.2562 8.70428 12.291 9.00089 12.3575 9.28694C9.118 9.12439 6.24478 7.57272 4.32261 5.21356C3.98694 5.78989 3.79483 6.45911 3.79483 7.17372C3.79483 8.52589 4.48306 9.71867 5.52911 10.4185C4.8905 10.3984 4.28883 10.2222 3.76317 9.93083C3.76317 9.94667 3.76317 9.96356 3.76317 9.97939C3.76317 11.8678 5.10689 13.4437 6.88972 13.8016C6.5625 13.8913 6.21839 13.9388 5.86267 13.9388C5.61144 13.9388 5.36761 13.9145 5.13011 13.8691C5.62622 15.4176 7.06494 16.5439 8.77072 16.5756C7.4365 17.6216 5.75606 18.2444 3.92994 18.2444C3.61539 18.2444 3.30506 18.2264 3 18.1895C4.72478 19.2957 6.77361 19.9417 8.9755 19.9417C16.1459 19.9417 20.0662 14.0011 20.0662 8.84994C20.0662 8.68106 20.062 8.51322 20.0546 8.34644C20.8167 7.7965 21.4775 7.11039 22 6.32822Z" fill="#333333"/>
</svg>
